<?xml version="1.0" encoding="utf-8"?>
<!-- Generator: Adobe Illustrator 19.2.0, SVG Export Plug-In . SVG Version: 6.00 Build 0)  -->
<svg version="1.1" id="Layer_1" xmlns="http://www.w3.org/2000/svg" xmlns:xlink="http://www.w3.org/1999/xlink" x="0px" y="0px"
	 viewBox="0 0 277 187" style="enable-background:new 0 0 277 187;" xml:space="preserve">
<style type="text/css">
	.st0{fill:#FFFFFF;}
</style>
<path class="st0" d="M67.4,16.7c-2.3,0-4.4,1.1-5.7,3.1l-0.4,0.6l-0.7-0.1l-0.9-0.1c-1.8,0-3.4,0.8-4.4,2.1c-1.5,2.1-1.1,5.1,1,7.3
	l0.5,0.5l-0.2,0.6c-0.9,3.1,0.3,6.3,2.8,7.3c0.6,0.3,1.2,0.4,1.9,0.4c2.4,0,4.7-1.7,5.8-4.2c0.4-0.9,0.6-1.9,0.6-2.8v-1l0.9-0.2
	c3.2-0.6,5.6-3.4,5.6-6.7C74.2,19.8,71.1,16.7,67.4,16.7z"/>
<path d="M67.4,14.4c-2.8,0-5.5,1.3-7.2,3.5c-2.8-0.2-5.3,1-6.7,3.1c-2,2.8-1.7,6.7,0.8,9.7c-0.9,4,0.9,8,4.3,9.5
	c0.9,0.4,1.8,0.6,2.8,0.6c3.3,0,6.5-2.3,7.9-5.6c0.4-0.9,0.6-1.8,0.7-2.8c3.9-1.1,6.6-4.7,6.6-8.8C76.5,18.5,72.4,14.4,67.4,14.4z
	 M67.7,31.4c0,1-0.2,1.9-0.6,2.8c-1.1,2.5-3.4,4.2-5.8,4.2c-0.6,0-1.3-0.1-1.9-0.4c-2.5-1.1-3.7-4.2-2.8-7.3l0.2-0.6l-0.5-0.5
	c-2.1-2.2-2.5-5.2-1-7.3c0.9-1.3,2.5-2.1,4.4-2.1c0.3,0,0.6,0,0.9,0.1l0.7,0.1l0.4-0.6c1.3-1.9,3.4-3.1,5.7-3.1
	c3.8,0,6.8,3.1,6.8,6.8c0,3.3-2.3,6.1-5.6,6.7l-0.9,0.2C67.7,30.4,67.7,31.4,67.7,31.4z M96.3,85.5l-1.9,36.7c0,0-0.1,2.5,0.4,3.5
	s1.3,1.3,1.9,1.2c0.7-0.2,2.7-2.5,2.7-2.5s0.9,2.2,1.1,2.5s1.3,1.4,2.3,1.2c1.7-0.4,2.4-3.3,3.1-6.9c0.4-1.8,1.5-37.4,1.5-37.4
	L96.3,85.5L96.3,85.5z M111.8,87l0.4,15.8l0.4,11.6c0.2,1.8,0.8,6.5,2.4,6.9c1.2,0.3,1.6-0.8,1.8-1.1c0.3-0.3,0.8-1.5,0.8-1.5
	c-0.1,0.3,0.7,1.6,1,1.9c1.9,1.7,2.9-1.2,3.1-2.6c0.9-5.6-0.3-11.7-0.8-17.3c-0.1-0.6-0.1-1.2-0.2-1.7l-1.2-14.3L111.8,87L111.8,87z
	 M147.3,87.4c-0.2,2.4-0.4,4.8-0.6,7.3l-0.6,7.4l-0.5,6.9c-0.2,2.8-0.5,5.6-0.6,8.4c-0.1,2.2-0.2,4.4,0,6.6c0.1,1.2,0.1,3.3,0.8,4.3
	c0.4,0.6,1,1.1,1.7,0.9c0.3-0.1,2.7-1.8,2.6-2c0.6,1.1,1.2,3.4,2.9,3.3c0.9-0.1,1.8-2.7,1.9-3.4c0.2-1.2,0.5-2.4,0.6-3.6
	c0.4-3.6,0.6-7.2,0.9-10.8c0.2-1.8,0.3-3.5,0.3-5.3c0-3.9,0.1-7.8,0.2-11.7L157,90c0-0.6,0.4-2.6,0-3.1v-0.2
	c-2.8,0.2-5.6,0.5-8.5,0.7C148.1,87.3,147.7,87.4,147.3,87.4L147.3,87.4z M160.9,85.5l0.3,10.5c0,4.3,1,8.6,1.7,12.8
	c0.3,1.7,0.4,3.5,0.5,5.2c0.1,1.5,0,3.1,0.6,4.5c0.2,0.6,0.8,1.3,1.4,1.6c1,0.4,2.4-0.9,3.2-1.5c-0.1,0,0.6,1.2,0.7,1.3
	c1.1,1.1,1.8,0.2,2.2-0.8c1.7-4.2,0.3-8.7-0.4-13c-0.1-0.5-0.2-1-0.2-1.5l-3.5-20.5L160.9,85.5z"/>
<path d="M3,151.3c1.4-0.2,3.3-0.4,5.7-0.4c2.9,0,5.1,0.7,6.4,1.9c1.3,1.1,2,2.7,2,4.8s-0.6,3.7-1.8,4.9c-1.6,1.7-4.1,2.5-7,2.5
	c-0.9,0-1.7,0-2.4-0.2v9.2H3V151.3z M6,162.3c0.6,0.2,1.5,0.2,2.4,0.2c3.6,0,5.7-1.7,5.7-4.9c0-3-2.1-4.5-5.4-4.5
	c-1.3,0-2.3,0.1-2.8,0.2v9H6z M20.2,162.6c0-1.9,0-3.6-0.1-5.1h2.6l0.1,3.2h0.1c0.7-2.2,2.5-3.6,4.5-3.6c0.3,0,0.6,0,0.8,0.1v2.8
	c-0.3-0.1-0.6-0.1-1-0.1c-2.1,0-3.6,1.6-4,3.8c-0.1,0.4-0.1,0.9-0.1,1.4v8.7h-2.9V162.6L20.2,162.6z M45.8,165.5
	c0,6.1-4.2,8.7-8.2,8.7c-4.4,0-7.9-3.3-7.9-8.4c0-5.5,3.6-8.7,8.1-8.7C42.6,157.1,45.8,160.5,45.8,165.5z M32.7,165.7
	c0,3.6,2.1,6.3,5,6.3c2.8,0,5-2.7,5-6.4c0-2.8-1.4-6.3-4.9-6.3S32.7,162.6,32.7,165.7z M45.8,178.6c1.4-0.1,2.5-0.5,3.3-1.3
	c0.8-0.9,1.1-2.2,1.1-6.2v-13.7h3v14.9c0,3.2-0.5,5.3-2,6.7c-1.3,1.3-3.5,1.9-5.1,1.9L45.8,178.6L45.8,178.6z M53.5,152.8
	c0,1-0.7,1.8-1.9,1.8c-1.1,0-1.8-0.8-1.8-1.8c0-1.1,0.8-1.9,1.9-1.9C52.8,151,53.5,151.8,53.5,152.8z M60.3,166.2
	c0.1,4,2.6,5.7,5.6,5.7c2.1,0,3.4-0.4,4.5-0.8l0.5,2.1c-1.1,0.5-2.8,1-5.5,1c-5.1,0-8.1-3.3-8.1-8.3s2.9-8.8,7.7-8.8
	c5.4,0,6.8,4.7,6.8,7.7c0,0.6-0.1,1.1-0.1,1.4L60.3,166.2L60.3,166.2z M69,164.1c0-1.9-0.8-4.8-4.1-4.8c-3,0-4.3,2.8-4.6,4.8H69z
	 M87.8,173.2c-0.8,0.4-2.5,0.9-4.7,0.9c-5,0-8.2-3.4-8.2-8.4c0-5.1,3.5-8.7,8.8-8.7c1.8,0,3.3,0.4,4.1,0.8l-0.7,2.3
	c-0.7-0.4-1.8-0.8-3.5-0.8c-3.8,0-5.8,2.8-5.8,6.2c0,3.8,2.4,6.1,5.7,6.1c1.7,0,2.8-0.4,3.7-0.8L87.8,173.2z M95.2,152.7v4.7h4.3
	v2.3h-4.3v8.8c0,2,0.6,3.2,2.2,3.2c0.8,0,1.4-0.1,1.7-0.2l0.1,2.2c-0.6,0.2-1.5,0.4-2.6,0.4c-1.4,0-2.5-0.4-3.2-1.3
	c-0.8-0.9-1.2-2.3-1.2-4.3v-9h-2.5v-2.3h2.5v-3.9L95.2,152.7L95.2,152.7z M110.1,173.9V151h3.2l7.3,11.6c1.7,2.7,3,5.1,4.1,7.4h0.1
	c-0.3-3.1-0.3-5.8-0.3-9.4V151h2.8v22.9h-3l-7.3-11.6c-1.6-2.5-3.1-5.2-4.3-7.6h-0.1c0.2,2.9,0.2,5.6,0.2,9.4v9.8L110.1,173.9
	L110.1,173.9z M135.7,152.8c0,1-0.7,1.8-1.9,1.8c-1.1,0-1.8-0.8-1.8-1.8c0-1.1,0.8-1.9,1.9-1.9C135,151,135.7,151.8,135.7,152.8z
	 M132.3,173.9v-16.4h3v16.4H132.3z M155.1,157.4c-0.1,1.2-0.1,2.5-0.1,4.5v9.5c0,3.8-0.7,6.1-2.3,7.5c-1.6,1.5-3.9,2-6,2
	c-2,0-4.1-0.5-5.5-1.4l0.7-2.3c1.1,0.7,2.8,1.3,4.8,1.3c3.1,0,5.3-1.6,5.3-5.7V171c-0.9,1.5-2.7,2.7-5.2,2.7c-4.1,0-7-3.5-7-8
	c0-5.6,3.6-8.7,7.4-8.7c2.8,0,4.4,1.5,5.1,2.8h0.1l0.1-2.5L155.1,157.4L155.1,157.4z M152,163.9c0-0.5,0-0.9-0.2-1.4
	c-0.5-1.7-2-3.2-4.2-3.2c-2.8,0-4.9,2.4-4.9,6.2c0,3.2,1.6,5.9,4.8,5.9c1.8,0,3.5-1.2,4.1-3.1c0.2-0.5,0.2-1.1,0.2-1.6v-2.8
	L152,163.9z M160.5,149.8h3V160h0.1c0.5-0.8,1.2-1.6,2.1-2.1c0.9-0.5,1.9-0.8,3.1-0.8c2.2,0,5.7,1.4,5.7,7v9.8h-3v-9.4
	c0-2.6-1-4.9-3.8-4.9c-1.9,0-3.5,1.4-4,3c-0.2,0.4-0.2,0.8-0.2,1.4v9.9h-3L160.5,149.8L160.5,149.8z M183.3,152.7v4.7h4.3v2.3h-4.3
	v8.8c0,2,0.6,3.2,2.2,3.2c0.8,0,1.4-0.1,1.7-0.2l0.1,2.2c-0.6,0.2-1.5,0.4-2.6,0.4c-1.4,0-2.5-0.4-3.2-1.3c-0.8-0.9-1.2-2.3-1.2-4.3
	v-9h-2.5v-2.3h2.5v-3.9L183.3,152.7L183.3,152.7z M198.3,173.9V151h3.2l7.3,11.6c1.7,2.7,3,5.1,4.1,7.4h0.1
	c-0.3-3.1-0.3-5.8-0.3-9.4V151h2.8v22.9h-3l-7.3-11.6c-1.6-2.5-3.1-5.2-4.3-7.6h-0.1c0.2,2.9,0.2,5.6,0.2,9.4v9.8L198.3,173.9
	L198.3,173.9z M223.9,152.8c0,1-0.7,1.8-1.9,1.8c-1.1,0-1.8-0.8-1.8-1.8c0-1.1,0.8-1.9,1.9-1.9C223.1,151,223.9,151.8,223.9,152.8z
	 M220.5,173.9v-16.4h3v16.4H220.5z M243.3,157.4c-0.1,1.2-0.1,2.5-0.1,4.5v9.5c0,3.8-0.7,6.1-2.3,7.5c-1.6,1.5-3.9,2-6,2
	c-2,0-4.1-0.5-5.5-1.4l0.7-2.3c1.1,0.7,2.8,1.3,4.8,1.3c3.1,0,5.3-1.6,5.3-5.7V171h-0.1c-0.9,1.5-2.7,2.7-5.2,2.7c-4.1,0-7-3.5-7-8
	c0-5.6,3.6-8.7,7.4-8.7c2.8,0,4.4,1.5,5.1,2.8h0.1l0.1-2.5L243.3,157.4L243.3,157.4z M240.2,163.9c0-0.5,0-0.9-0.2-1.4
	c-0.5-1.7-2-3.2-4.2-3.2c-2.8,0-4.9,2.4-4.9,6.2c0,3.2,1.6,5.9,4.8,5.9c1.8,0,3.5-1.2,4.1-3.1c0.2-0.5,0.2-1.1,0.2-1.6v-2.8
	L240.2,163.9z M248.7,149.8h3V160h0.1c0.5-0.8,1.2-1.6,2.1-2.1c0.9-0.5,1.9-0.8,3.1-0.8c2.2,0,5.7,1.4,5.7,7v9.8h-3v-9.4
	c0-2.6-1-4.9-3.8-4.9c-1.9,0-3.5,1.4-4,3c-0.2,0.4-0.2,0.8-0.2,1.4v9.9h-3L248.7,149.8L248.7,149.8z M271.4,152.7v4.7h4.3v2.3h-4.3
	v8.8c0,2,0.6,3.2,2.2,3.2c0.8,0,1.4-0.1,1.7-0.2l0.1,2.2c-0.6,0.2-1.5,0.4-2.6,0.4c-1.4,0-2.5-0.4-3.2-1.3c-0.8-0.9-1.2-2.3-1.2-4.3
	v-9H266v-2.3h2.5v-3.9L271.4,152.7L271.4,152.7z"/>
<g id="Body">
	<path class="st0" d="M195.8,47.2c9.6-6.5,0-20.5-9.7-18.9c-0.1,0-1.9,0.2-1.5-0.4c2.4-4.1,3.7-10.3-0.6-13.8
		c-5.5-4.4-12.8-3.4-18.6-0.1c-0.3,0.2-3.3,1.3-3.3,0.4c-0.9-9.4-11.3-11.3-18.7-7.2c-0.5,0.3-3,1.4-3.3,0.4
		C137.4,0.4,127-0.6,123,6.2c-0.4,0.7-3,1.6-3.7,1c-7.8-7.6-22-6.3-26.1,4.5c-0.3,0.9-2.7,1.3-3.4,1.1c-3.4-1.1-7.7-1.3-10.2,1.9
		c-0.4,0.4-1.3,2.6-1.9,3.1c-0.8,0.8-2.7,1.1-3.4,1.5c-1.9,0.9-3.8,2-5.3,3.5c-4.9,4.8-6.6,11-3.2,17.2c0,0.2-0.1,0.3-0.2,0.4
		c-5.5,4.9-2.5,11.3,4,12.9c0.3,0.1,0.5,0.4,0.2,0.6c-7.2,5.6-2,13.7,6,13.3c0.2,0,1.3-0.1,1,0.4c-5.6,12,7.8,19.9,18.4,17.1
		c0.4-0.1,1.6-0.4,1.9-0.1c8.2,9.3,23.5,9.3,32.2,0.6c0.6-0.6,3-1.5,3.6-0.6c5.3,7.9,16.7,9.1,24,2.9c0.6-0.5,2.7-1.4,3.5-0.8
		c3.6,3.1,10.3,6.2,14.6,2.1c3-2.9,3.8-6.3,3.2-10.4c-0.2-1.1,3-1.5,3.7-1.2c9.2,4.6,14.5-4.2,10.8-11.9c-0.3-0.5,1.5-1,1.7-1.1
		c7.9-2.4,5.8-11.9,1.5-16.3l-0.3-0.3C195.2,47.6,195.6,47.3,195.8,47.2z"/>
	<path d="M201.7,44.6c0.9-1,1.3-2.4,1.6-3.6c0.8-3.1-0.5-6.2-2.1-8.8c-2.8-4.2-7.8-5.8-12.6-5.5c3.6-6.6,1.9-13.5-5.5-16.2
		c-5.5-2.1-12.1-0.5-17.5,1.9c-1.9-10.3-14.1-9.8-22.3-6.5c-3.9-8.2-16.4-7-22.3-1.2c-9.2-6.8-25.4-4.2-30.9,6.2
		c-5.9-1-12.4,1.1-15.7,6.4c-0.9,1.4-2.8,1.7-4.2,2.5c-2.1,1.2-4,2.6-5.8,4.3c-2.8,2.8-4.3,6.5-4.5,10.4c-0.1,1.4,2,6.3,1,7.2
		c-1.3,1.1-2.4,3.2-2.4,4.9c0,1.8,0.3,3.5,1.6,4.9c0.5,0.6,5,3.6,4.8,3.8c-2.9,2.2-3.9,7-1.4,9.9s5.7,3.8,9.2,3.8
		c-6,13.6,10,19.5,21,17.5c9.1,9.9,26.2,8.8,36.5,0.9c6.7,8,19.4,7.3,27.7,1.9c8.9,6.2,23.9,2.7,24.1-9.1
		c9.1,1.7,19.2-4.7,14.4-15.1c7.5-3.4,9.2-11.5,2.9-18.1C199.3,46.8,200.9,45.5,201.7,44.6L201.7,44.6z M139.9,7.8
		c0.3,0.9,2.9-0.2,3.3-0.4c7.4-4.1,17.7-2.2,18.7,7.2c0.1,0.9,3-0.3,3.3-0.4c5.8-3.3,13.2-4.3,18.6,0.1c4.3,3.5,3.1,9.6,0.6,13.8
		c-0.4,0.6,1.4,0.4,1.5,0.4c9.7-1.7,19.4,12.4,9.7,18.9c-0.2,0.1-0.6,0.4-0.3,0.7l0.3,0.3c4.3,4.4,6.4,13.9-1.5,16.3
		c-0.2,0.1-2,0.6-1.7,1.1c3.7,7.7-1.6,16.4-10.8,11.9c-0.6-0.3-3.8,0.1-3.7,1.2c0.6,4-0.3,7.5-3.2,10.4c-4.2,4.1-11,1-14.6-2.1
		c-0.8-0.7-2.9,0.3-3.5,0.8c-7.2,6.1-18.7,5-24-2.9c-0.6-0.9-3.1,0.1-3.6,0.6c-8.7,8.6-24,8.6-32.2-0.6c-0.3-0.4-1.6,0-1.9,0.1
		C84.3,88,70.9,80,76.5,68.1c0.2-0.5-0.8-0.4-1-0.4c-8.1,0.3-13.2-7.8-6-13.3c0.3-0.2,0.2-0.5-0.2-0.6c-6.5-1.6-9.6-8-4-12.9
		c0.1-0.1,0.2-0.2,0.2-0.4c-3.3-6.2-1.7-12.4,3.2-17.2c1.5-1.5,3.4-2.5,5.3-3.5c0.7-0.3,2.6-0.7,3.4-1.5c0.5-0.5,1.5-2.7,1.9-3.1
		c2.6-3.2,6.8-3,10.2-1.9c0.8,0.3,3.1-0.2,3.4-1.1C97,1.4,111.2,0.1,119,7.7c0.7,0.7,3.2-0.3,3.7-1C126.8-0.4,137.2,0.6,139.9,7.8z"
		/>
</g>
<path id="R_Ear" d="M218.2,37.2c-0.7-3.8-4.8-4.4-6.1-4.5c-0.3,0-0.6-0.1-1-0.1c-4.6,0-19.2,2.8-21.3,7.1c-0.3,0.7-0.5,1.7,0.4,2.9
	c1.3,1.7,4.6,2.5,9.9,2.5c5.9,0,12.4-1,13.8-1.3C216.9,43.2,218.8,40.3,218.2,37.2L218.2,37.2z"/>
<g id="L_Ear_x2C__eyes_x2C__nose_x2C__head">
	<path class="st0" d="M180.6,36.4c-5.3,1.7-9.6,6.6-10.2,12.2c-0.7,7,3,11.7,7.4,16.5c8.2,8.8,17.3,18.3,28,23.8
		c4.6,2.4,11.6,4.5,12.3-2.9c0.5-5.6-1.9-11.3-4.3-16.2c-4.9-10.1-11.4-19.6-18.5-28.3C191.9,37.6,186.2,34.7,180.6,36.4z"/>
	<path d="M172,50.8c-5.5,0-17.5,7.3-19.6,9.9c-0.9,1-3.5,4.2-1.5,7.5c1,1.7,2.9,2.8,4.9,2.8c0.9,0,1.9-0.3,2.7-0.7
		c0.2-0.1,17.3-10.6,16.9-16.7C175.2,51.8,174,50.8,172,50.8L172,50.8z"/>
	<ellipse transform="matrix(0.8344 -0.5512 0.5512 0.8344 -12.4584 129.9628)" cx="210" cy="85.7" rx="1.3" ry="2.3"/>
	<ellipse transform="matrix(0.8344 -0.5512 0.5512 0.8344 -10.835 131.1885)" cx="212.9" cy="83.6" rx="1.3" ry="2.3"/>
	<path d="M184.6,64.5c-1.2,0-2.3-0.2-3.4-0.7c-0.4-0.2-0.6-0.6-0.4-1c0.2-0.4,0.6-0.6,1-0.4c1.4,0.6,2.8,0.7,4.2,0.5
		c1.7-0.3,2.9-1,4.3-1.9c0.4-0.2,0.8-0.2,1.1,0.2c0.2,0.4,0.2,0.8-0.2,1.1c-1.3,0.9-2.8,1.8-4.9,2.2L184.6,64.5L184.6,64.5z
		 M182,67.7c-0.2,0-0.3-0.1-0.5-0.2c-0.3-0.3-0.4-0.7-0.1-1.1c0,0,1.1-1.5,1.3-2.8c0.1-0.4,0.5-0.7,0.9-0.6c0.4,0.1,0.7,0.5,0.6,0.9
		c-0.3,1.6-1.6,3.3-1.6,3.4C182.5,67.6,182.3,67.7,182,67.7L182,67.7z M186.2,68.4c-0.5,0-0.8-0.4-0.8-0.8c0,0,0.2-2.1,0.1-3.6
		c0-0.4,0.3-0.8,0.8-0.8c0.4,0,0.8,0.3,0.8,0.8c0,1.6-0.1,3.7-0.1,3.7C186.9,68.1,186.6,68.4,186.2,68.4z M190.9,67
		c-0.2,0-0.4-0.1-0.6-0.2c-0.1-0.1-1.3-1.4-2.4-2.9c-0.3-0.3-0.2-0.8,0.2-1.1c0.3-0.3,0.8-0.2,1.1,0.2c1.1,1.5,2.3,2.7,2.3,2.8
		c0.3,0.3,0.3,0.8,0,1.1C191.2,66.9,191,67,190.9,67z M199.1,55c-0.4,0-0.8-0.3-0.8-0.8c0-0.4,0.3-0.8,0.8-0.8
		c1.8,0,3.5-0.3,3.6-0.3c0.4-0.1,0.8,0.2,0.9,0.7c0.1,0.4-0.2,0.8-0.7,0.9C202.7,54.7,201,55,199.1,55z M201.9,58.9
		c-0.1,0-0.2,0-0.3-0.1c-0.1,0-2-1-3.8-2.2c-0.4-0.2-0.5-0.7-0.2-1.1c0.2-0.4,0.7-0.5,1.1-0.2c1.8,1.2,3.6,2.1,3.6,2.1
		c0.4,0.2,0.5,0.6,0.4,1C202.5,58.7,202.2,58.9,201.9,58.9z M193.8,59.2c-0.3,0-0.6-0.2-0.7-0.5c-0.2-0.4,0-0.8,0.4-1
		c0.1,0,5.2-2.1,4.7-5.3c-0.1-0.4,0.2-0.8,0.7-0.9c0.4-0.1,0.8,0.2,0.9,0.7c0.7,4.5-5.4,6.9-5.6,7H193.8L193.8,59.2z M197.3,61.7
		c-0.4,0-0.7-0.3-0.8-0.6c0,0-0.4-2-0.9-3.5c-0.1-0.4,0.1-0.8,0.5-1c0.4-0.1,0.8,0.1,1,0.5c0.5,1.5,0.9,3.5,0.9,3.6
		C198.1,61.1,197.8,61.5,197.3,61.7C197.5,61.7,197.4,61.7,197.3,61.7L197.3,61.7z M220.5,78.4c-3.5-13.8-13.4-26.9-22.2-37.8
		C185,25.7,159,42.5,170.2,60.4c3.3,5.2,8.6,9.8,13,14c6.1,5.9,12.6,11.6,20,15.7c4.3,2.4,9.2,3.9,13.9,1.7
		C222.2,89.5,221.6,82.9,220.5,78.4L220.5,78.4z M218.2,86.1c-0.7,7.4-7.7,5.3-12.3,2.9c-10.7-5.6-19.9-15.1-28-23.8
		c-4.5-4.8-8.1-9.5-7.4-16.5c0.6-5.6,4.8-10.6,10.2-12.2c5.5-1.7,11.2,1.2,14.8,5.2C202.6,50.4,209,59.9,214,70
		C216.3,74.8,218.8,80.6,218.2,86.1z"/>
</g>
</svg>
